<?xml version="1.0" encoding="UTF-8"?>
<svg id="_レイヤー_2" data-name="レイヤー 2" xmlns="http://www.w3.org/2000/svg" viewBox="0 0 388.02 42">
  <defs>
    <style>
      .cls-1 {
        fill: #04426d;
      }

      .cls-1, .cls-2, .cls-3, .cls-4 {
        stroke-width: 0px;
      }

      .cls-2 {
        fill: none;
      }

      .cls-3 {
        fill: #0f8fef;
      }

      .cls-4 {
        fill: #fff;
      }
    </style>
  </defs>
  <g id="_レイヤー_1-2" data-name="レイヤー 1">
    <g>
      <rect class="cls-2" width="370" height="42"/>
      <g>
        <g>
          <g>
            <g>
              <path class="cls-1" d="M17.88.56v3.37l14.48,8.92c-.07,4.55-.53,9.58-2.6,13.99-2.2,4.68-6.09,8.42-11.88,11.4v3.2c15.46-7.34,17.36-18.31,17.36-30.14v-.04L17.88.56Z"/>
              <path class="cls-1" d="M29.66,14.31v.12c-.12,2.98-.49,7.39-2.31,11.28-1.78,3.79-4.85,6.88-9.37,9.45l-.1.06v-5.57l1.53-7.11,7.11-1.53-7.11-1.53-1.53-7.11v-5.29l.11.07,11.67,7.19Z"/>
            </g>
            <path class="cls-3" d="M17.88,3.93L3.4,12.85c.07,4.55.54,9.58,2.6,13.99,2.2,4.68,6.09,8.42,11.88,11.4v3.2C2.43,34.1.52,23.13.52,11.3v-.04L17.88.56v3.37Z"/>
            <path class="cls-3" d="M16.35,19.47l-7.11,1.53,7.11,1.53,1.53,7.11v5.57l-.1-.06c-4.52-2.57-7.59-5.66-9.36-9.45-1.83-3.89-2.19-8.3-2.31-11.28v-.12s.1-.06.1-.06l11.68-7.19v5.29l-1.53,7.11Z"/>
          </g>
          <g>
            <path class="cls-3" d="M44.35,21.61c0-7.96,5.48-13.71,12.85-13.71,3.91,0,7.26,1.56,9.49,4.45l-2.88,3.01c-1.75-2.09-3.91-3.12-6.41-3.12-4.97,0-8.57,3.88-8.57,9.37s3.6,9.37,8.57,9.37c2.5,0,4.66-1.03,6.41-3.16l2.88,3.05c-2.23,2.89-5.58,4.45-9.53,4.45-7.33,0-12.81-5.75-12.81-13.71Z"/>
            <path class="cls-3" d="M69.35,6.68h4.28v28.25h-4.28V6.68Z"/>
            <path class="cls-3" d="M76.3,24.77c0-6.09,4.11-10.39,9.73-10.39s9.76,4.3,9.76,10.39-4.08,10.43-9.76,10.43-9.73-4.34-9.73-10.43ZM91.48,24.77c0-3.88-2.33-6.36-5.45-6.36s-5.41,2.47-5.41,6.36,2.33,6.36,5.41,6.36,5.45-2.47,5.45-6.36Z"/>
            <path class="cls-3" d="M116.32,14.6v20.33h-4.08v-2.59c-1.37,1.87-3.53,2.86-5.89,2.86-4.69,0-7.88-2.86-7.88-8.99v-11.61h4.28v10.97c0,3.69,1.58,5.44,4.28,5.44,2.98,0,5-2.06,5-6.13v-10.28h4.28Z"/>
            <path class="cls-3" d="M138.43,6.68v28.25h-4.11v-2.63c-1.44,1.94-3.56,2.89-6.06,2.89-5.31,0-9.25-4.11-9.25-10.43s3.94-10.39,9.25-10.39c2.36,0,4.45.88,5.89,2.74V6.68h4.28ZM134.22,24.77c0-3.88-2.36-6.36-5.45-6.36s-5.45,2.47-5.45,6.36,2.36,6.36,5.45,6.36,5.45-2.47,5.45-6.36Z"/>
            <path class="cls-1" d="M141.79,32.12l1.54-3.85c1.92,1.71,4.97,2.93,7.91,2.93,3.73,0,5.31-1.48,5.31-3.46,0-5.75-14.25-1.98-14.25-11.88,0-4.3,3.08-7.96,9.66-7.96,2.88,0,5.89.84,7.98,2.36l-1.4,3.85c-2.16-1.41-4.52-2.09-6.61-2.09-3.7,0-5.21,1.6-5.21,3.62,0,5.67,14.22,1.98,14.22,11.77,0,4.26-3.12,7.92-9.7,7.92-3.73,0-7.47-1.29-9.46-3.2Z"/>
            <path class="cls-1" d="M181.73,26.29h-14.36c.51,2.97,2.74,4.87,5.93,4.87,2.06,0,3.67-.72,4.97-2.21l2.3,2.93c-1.64,2.17-4.21,3.31-7.37,3.31-6.13,0-10.11-4.38-10.11-10.43s4.01-10.39,9.46-10.39,9.25,4.15,9.25,10.51c0,.38-.03.95-.07,1.41ZM167.34,23.13h10.38c-.34-2.93-2.36-4.95-5.17-4.95s-4.8,1.98-5.21,4.95Z"/>
            <path class="cls-1" d="M184.11,24.77c0-6.09,4.11-10.39,9.9-10.39,3.56,0,6.41,1.64,7.81,4.72l-3.29,2.13c-1.1-1.94-2.74-2.82-4.56-2.82-3.15,0-5.55,2.44-5.55,6.36s2.4,6.36,5.55,6.36c1.82,0,3.46-.88,4.56-2.82l3.29,2.13c-1.4,3.05-4.25,4.76-7.81,4.76-5.79,0-9.9-4.34-9.9-10.43Z"/>
            <g>
              <path class="cls-1" d="M221.95,14.6v20.33h-4.08v-2.59c-1.37,1.87-3.53,2.86-5.89,2.86-4.69,0-7.88-2.86-7.88-8.99v-11.61h4.28v10.97c0,3.69,1.58,5.44,4.28,5.44,2.98,0,5-2.06,5-6.13v-10.28h4.28Z"/>
              <g>
                <path class="cls-1" d="M235.54,14.38v4.53c-.38-.08-.69-.11-.99-.11-3.25,0-5.31,2.13-5.31,6.28v9.86h-4.28V14.6h4.08v2.97c1.23-2.13,3.46-3.2,6.51-3.2Z"/>
                <path class="cls-1" d="M255.1,26.29h-14.36c.51,2.97,2.74,4.87,5.93,4.87,2.06,0,3.67-.72,4.97-2.21l2.3,2.93c-1.64,2.17-4.21,3.31-7.37,3.31-6.13,0-10.11-4.38-10.11-10.43s4.01-10.39,9.46-10.39,9.25,4.15,9.25,10.51c0,.38-.03.95-.07,1.41ZM240.71,23.13h10.38c-.34-2.93-2.36-4.95-5.17-4.95s-4.8,1.98-5.21,4.95Z"/>
              </g>
            </g>
          </g>
        </g>
        <rect class="cls-1" x="263.02" y="11.45" width="125" height="24"/>
        <g>
          <path class="cls-4" d="M272,15.33h2.63l1.63,6.68c.41,1.69.72,4.51.72,4.51h.04s.45-2.93.83-4.58l1.69-6.61h2.52l1.67,6.59c.39,1.67.8,4.6.8,4.6h.04s.37-2.84.8-4.53l1.63-6.66h2.63l-3.82,13.8h-2.5l-1.76-7.22c-.37-1.47-.72-4.14-.72-4.14h-.04s-.37,2.67-.71,4.14l-1.86,7.22h-2.56l-3.67-13.8Z"/>
          <path class="cls-4" d="M291.29,15.33h5.97c1.56,0,2.75.46,3.51,1.3.74.8,1.17,1.8,1.17,3.02,0,2.6-1.65,4.29-4.56,4.29h-3.49v5.2h-2.6v-13.8ZM293.88,21.88h3.08c1.58,0,2.39-.85,2.39-2.19s-.85-2.15-2.36-2.15h-3.12v4.34Z"/>
          <path class="cls-4" d="M307.59,24.72h2.58c.19,1.78,1.35,2.67,3.47,2.67,1.5,0,2.75-.65,2.75-2.02,0-1.48-1.37-1.82-3.56-2.32-2.58-.58-4.73-1.26-4.73-4.03,0-2.62,2.15-3.93,5.1-3.93,3.21,0,5.07,1.54,5.33,4.08h-2.5c-.2-1.35-1.22-2.12-2.86-2.12-1.54,0-2.56.65-2.56,1.74,0,1.28,1.34,1.61,3.47,2.06,2.56.56,4.92,1.32,4.92,4.3,0,2.75-2.3,4.29-5.36,4.29-3.79,0-5.92-1.91-6.03-4.73Z"/>
          <path class="cls-4" d="M320.29,24.2c0-2.95,1.99-5.23,4.92-5.23,1.45,0,2.58.5,3.41,1.39.96,1.02,1.43,2.58,1.41,4.42h-7.4c.17,1.71,1.08,2.86,2.73,2.86,1.13,0,1.87-.48,2.19-1.3h2.3c-.48,1.78-2.08,3.1-4.51,3.1-3.15,0-5.05-2.3-5.05-5.23ZM322.67,23.29h4.94c-.09-1.63-.96-2.62-2.39-2.62-1.54,0-2.34,1.06-2.54,2.62Z"/>
          <path class="cls-4" d="M331.18,24.2c0-2.95,1.95-5.23,4.99-5.23,2.52,0,4.12,1.43,4.47,3.56h-2.3c-.22-1.08-.96-1.76-2.15-1.76-1.73,0-2.62,1.43-2.62,3.43s.89,3.4,2.62,3.4c1.3,0,2.08-.76,2.21-2.06h2.3c-.15,2.3-1.84,3.9-4.49,3.9-3.06,0-5.03-2.3-5.03-5.23Z"/>
          <path class="cls-4" d="M348.62,29.14v-1.41h-.04c-.72,1.08-1.6,1.67-2.99,1.67-2.17,0-3.43-1.35-3.43-3.49v-6.68h2.36v6.35c0,1.17.67,1.86,1.86,1.86,1.34,0,2.19-1.02,2.19-2.39v-5.81h2.34v9.91h-2.28Z"/>
          <path class="cls-4" d="M355.33,21.01h.06c.63-1.28,1.58-1.93,2.84-1.93.28,0,.46.02.63.09v2.12h-.07c-.22-.06-.41-.07-.65-.07-1.56-.02-2.73,1.04-2.73,2.95v4.97h-2.36v-9.91h2.28v1.78Z"/>
          <path class="cls-4" d="M360.36,15.33h2.41v2.28h-2.41v-2.28ZM360.39,19.23h2.36v9.91h-2.36v-9.91Z"/>
          <path class="cls-4" d="M364.29,19.23h1.52v-3.15h2.32v3.15h1.99v1.61h-1.99v5.55c0,.72.39.93,1.06.93.24,0,.58-.04.76-.07h.11v1.84c-.39.07-.93.15-1.56.15-1.6,0-2.69-.58-2.69-2.32v-6.07h-1.52v-1.61Z"/>
          <path class="cls-4" d="M371.74,32.4v-1.91h.13c.09.06.74.09.98.09.8,0,1.24-.3,1.45-1.09,0-.19.09-1.11-.11-1.65l-3.41-8.61h2.5l1.63,4.6c.43,1.22.83,3.08.83,3.08h.04s.45-1.87.85-3.08l1.58-4.6h2.38l-3.84,10.46c-.82,2.19-1.67,2.82-3.28,2.82-.3,0-1.56-.06-1.73-.11Z"/>
        </g>
      </g>
    </g>
  </g>
</svg>